<svg width="296" height="137" viewBox="0 0 296 137" xmlns="http://www.w3.org/2000/svg">
<path fill-rule="evenodd" clip-rule="evenodd" d="M278.79 102.074C278.596 102.074 278.408 102.098 278.215 102.103C275.7 89.7084 265.183 80.2245 252.29 79.2623C247.792 57.7202 228.697 41.5377 205.818 41.5377C202.001 41.5377 198.294 42.0005 194.737 42.8507C184.66 17.7408 160.106 0 131.392 0C113.176 0 96.6394 7.15273 84.4003 18.7826C80.5463 17.1016 76.294 16.1641 71.8201 16.1641C56.3533 16.1641 43.4997 27.3119 40.8317 42.0102C17.7591 45.2432 0 65.0516 0 89.0163C0 115.239 21.2569 136.496 47.4786 136.496H278.79C288.295 136.496 296 128.79 296 119.286C296 109.78 288.295 102.074 278.79 102.074Z"/>
</svg>
