<svg width="115" height="118" viewBox="0 0 115 118" xmlns="http://www.w3.org/2000/svg">
<mask id="mask0" mask-type="alpha" maskUnits="userSpaceOnUse" x="0" y="0" width="115" height="117">
<path fill-rule="evenodd" clip-rule="evenodd" d="M92.1044 20.0739L69.8101 0L0.666559 76.7916L45.2552 116.939L114.399 40.1478L92.1044 20.0739Z"/>
</mask>
<g mask="url(#mask0)">
<path fill-rule="evenodd" clip-rule="evenodd" d="M62.5024 82.3139L70.9971 72.8796C89.954 51.8258 92.6873 31.239 92.9892 23.5594C93.0215 22.7225 92.7005 21.9246 92.0826 21.3682C91.4763 20.8223 90.6513 20.5666 89.8331 20.6743C82.1714 21.7272 61.8104 26.4419 42.8319 47.5196L34.3265 56.9658L31.5605 56.5864C26.2373 55.8962 20.8391 57.91 17.192 61.9606L7.04472 73.2303C6.44719 73.8939 6.25611 74.8423 6.54189 75.6734C6.84501 76.5147 7.57165 77.1094 8.44404 77.2183L17.3907 78.4429C19.8933 78.7909 22.2378 79.8681 24.1151 81.5584L28.1859 85.2238L23.2657 90.6883C22.3613 91.6927 22.4371 93.2224 23.4211 94.1084L26.6807 97.0434C27.6648 97.9294 29.191 97.8422 30.0954 96.8378L35.0156 91.3733L39.0894 95.0414C40.9667 96.7317 42.2938 98.9388 42.8907 101.403L45.0438 110.173C45.2433 111.029 45.9224 111.7 46.7791 111.903C47.6472 112.111 48.5587 111.811 49.1563 111.148L59.3036 99.878C62.9507 95.8274 64.3785 90.2603 63.1464 85.0264L62.5024 82.3139ZM62.9727 53.4683C59.5564 50.3922 59.2708 45.1168 62.3462 41.7013C65.4322 38.2739 70.7086 38.0065 74.1249 41.0826C77.5442 44.1613 77.818 49.4261 74.732 52.8535C71.6566 56.269 66.3921 56.5471 62.9727 53.4683Z"/>
</g>
</svg>
