<svg width="65" height="84" viewBox="0 0 65 84" xmlns="http://www.w3.org/2000/svg">
<path fill-rule="evenodd" clip-rule="evenodd" d="M10.2318 72.1666C10.6703 70.871 11.8382 70.0073 13.147 70.0073H60.0607C61.557 70.0073 62.8402 71.1315 63.1066 72.6767L64.5083 80.7929C64.5714 81.1646 64.5585 81.551 64.4352 81.9047C64.1402 82.7523 63.3917 83.2727 62.5848 83.2727H9.29136C8.88993 83.2727 8.48999 83.1676 8.15902 82.931C7.38223 82.379 7.10263 81.3842 7.39654 80.5205L10.2318 72.1666Z"/>
<path fill-rule="evenodd" clip-rule="evenodd" d="M0.875381 29.9796L16.0129 9.74463L13.0995 2.72449C12.8427 2.1057 12.9978 1.41129 13.5 0.926405C14.0022 0.441851 14.7671 0.249994 15.4791 0.430392L29.7514 4.02788C31.1475 4.00496 36.3858 4.10089 42.1968 6.47323C48.3358 8.97982 56.2979 14.5905 59.3575 27.0802C63.5799 44.3224 59.4696 57.4849 56.9195 63.3746H16.4979L12.8901 60.1591C12.2358 59.576 12.1267 58.6655 12.6274 57.9724C15.9556 53.363 23.8071 41.7569 26.8425 34.5351C25.73 34.874 24.4702 35.0927 23.1384 35.0311C21.2438 34.9431 19.5145 34.3239 17.9792 33.1895L12.4382 36.4828C10.7258 37.4994 8.60342 37.8127 6.61437 37.3422C4.62532 36.8714 2.95628 35.6617 2.03633 34.0208L0.753407 31.7342C0.43745 31.1727 0.483376 30.5025 0.875381 29.9796ZM22.1281 18.7187H24.8001C25.8865 18.7187 26.7664 17.9336 26.7664 16.9664C26.7664 15.9983 25.8865 15.2145 24.8001 15.2145H22.1281C21.0414 15.2145 20.1618 15.9983 20.1618 16.9664C20.1618 17.9336 21.0414 18.7187 22.1281 18.7187Z"/>
</svg>
