<svg width="105" height="105" viewBox="0 0 105 105" xmlns="http://www.w3.org/2000/svg">
<path fill-rule="evenodd" clip-rule="evenodd" d="M5.39636 52.5054L38.3478 19.5539C40.9643 16.9374 45.4163 17.1322 48.2707 19.9866L52.521 24.2369L14.3975 62.3604C12.0605 64.6974 8.185 64.586 5.54621 62.1149C2.94913 59.2307 2.88021 55.0215 5.39636 52.5054Z"/>
<path fill-rule="evenodd" clip-rule="evenodd" d="M63.4451 16.8407L58.2016 22.0842C58.0042 22.2816 57.8213 22.4938 57.6545 22.7138C57.6185 22.7605 57.5758 22.8032 57.5344 22.8446C57.4664 22.9126 57.3837 22.9527 57.2997 23.0048C57.2583 23.0381 57.2263 23.0888 57.1756 23.1102L16.3923 63.8935C16.1682 64.1177 15.9387 64.3258 15.6986 64.5233C15.6212 64.5901 15.5385 64.6435 15.4598 64.7115C15.2931 64.8356 15.1357 64.9611 14.965 65.0706C14.8649 65.1387 14.7569 65.1961 14.6622 65.2588C14.5009 65.3563 14.3501 65.4564 14.1941 65.5406C14.0794 65.602 13.9594 65.6501 13.8448 65.7115C13.6941 65.7797 13.5434 65.8585 13.3861 65.9306C13.2661 65.9787 13.1421 66.0202 13.0207 66.067C12.8647 66.1298 12.7141 66.1873 12.5581 66.2288C12.4328 66.2715 12.3035 66.3077 12.1728 66.3451C12.0222 66.3813 11.8662 66.4228 11.7156 66.4589C11.5796 66.4911 11.449 66.5072 11.309 66.5327C11.1584 66.5582 11.0064 66.585 10.8451 66.5998C10.7145 66.616 10.5785 66.6268 10.4453 66.6376C10.3253 66.6431 10.2147 66.6579 10.0947 66.6633L42.8296 99.3982C45.5759 102.145 50.0433 102.14 52.7891 99.3937L99.3936 52.7892C102.141 50.042 102.144 45.576 99.3982 42.8297L73.4033 16.8348C70.657 14.0885 66.1923 14.0935 63.4451 16.8407ZM78.3689 50.0887C75.3562 53.1014 70.4571 53.1122 67.4472 50.1023C64.4413 47.0964 64.4468 42.192 67.4595 39.1793C70.4775 36.1613 75.3766 36.1611 78.3825 39.167C81.3924 42.1769 81.3869 47.0707 78.3689 50.0887Z"/>
</svg>
