<?xml version="1.0" standalone="no"?>
<!DOCTYPE svg PUBLIC "-//W3C//DTD SVG 20010904//EN"
 "http://www.w3.org/TR/2001/REC-SVG-20010904/DTD/svg10.dtd">
<svg version="1.0" xmlns="http://www.w3.org/2000/svg"
 width="260.000000pt" height="260.000000pt" viewBox="0 0 260.000000 260.000000"
 preserveAspectRatio="xMidYMid meet">
<metadata>
Created by potrace 1.14, written by Peter Selinger 2001-2017
</metadata>
<g transform="translate(0.000000,260.000000) scale(0.100000,-0.100000)"
fill="#000000" stroke="none">
<path d="M0 1368 l0 -1231 23 20 c12 11 44 39 71 64 64 58 58 52 161 144 50
44 92 82 95 85 3 3 46 41 95 85 50 44 92 82 95 85 3 3 43 39 90 80 214 190
224 202 360 425 8 14 40 64 71 113 31 48 118 184 194 302 139 217 187 293 205
320 5 8 29 45 52 82 40 61 55 74 186 160 78 51 195 128 260 170 111 73 231
151 421 274 l85 54 -1232 0 -1232 0 0 -1232z"/>
<path d="M2460 2371 c-265 -174 -577 -378 -686 -449 l-110 -72 -224 -352
c-123 -194 -251 -396 -285 -448 -100 -155 -159 -250 -173 -275 -11 -20 -92
-98 -246 -235 -21 -19 -49 -44 -60 -55 -12 -11 -62 -56 -111 -100 -50 -44
-108 -97 -130 -117 -22 -20 -51 -46 -65 -58 -14 -12 -63 -56 -109 -98 -46 -42
-93 -85 -104 -94 -19 -17 38 -18 1211 -18 l1232 0 0 1230 c0 677 -1 1230 -2
1230 -2 0 -64 -40 -138 -89z"/>
</g>
</svg>
